<?xml version="1.0" encoding="UTF-8"?>
<svg width="18px" height="18px" viewBox="0 0 18 18" version="1.1" xmlns="http://www.w3.org/2000/svg" xmlns:xlink="http://www.w3.org/1999/xlink">
    <!-- Generator: Sketch 47.1 (45422) - http://www.bohemiancoding.com/sketch -->
    <title>dots</title>
    <desc>Created with Sketch.</desc>
    <defs></defs>
    <g id="Page-1" stroke="none" stroke-width="1" fill="none" fill-rule="evenodd">
        <path d="M2.25,7 C2.850003,7 3.37499775,7.22499775 3.825,7.675 C4.27500225,8.12500225 4.5,8.649997 4.5,9.25 C4.5,9.850003 4.27500225,10.3749978 3.825,10.825 C3.37499775,11.2750022 2.850003,11.5 2.25,11.5 C1.649997,11.5 1.12500225,11.2750022 0.675,10.825 C0.22499775,10.3749978 0,9.850003 0,9.25 C0,8.649997 0.22499775,8.12500225 0.675,7.675 C1.12500225,7.22499775 1.649997,7 2.25,7 Z M15.75,7 C16.350003,7 16.8749977,7.22499775 17.325,7.675 C17.7750023,8.12500225 18,8.649997 18,9.25 C18,9.850003 17.7750023,10.3749978 17.325,10.825 C16.8749977,11.2750022 16.350003,11.5 15.75,11.5 C15.149997,11.5 14.6250022,11.2750022 14.175,10.825 C13.7249977,10.3749978 13.5,9.850003 13.5,9.25 C13.5,8.649997 13.7249977,8.12500225 14.175,7.675 C14.6250022,7.22499775 15.149997,7 15.75,7 Z M9,7 C9.600003,7 10.1249977,7.22499775 10.575,7.675 C11.0250022,8.12500225 11.25,8.649997 11.25,9.25 C11.25,9.850003 11.0250022,10.3749978 10.575,10.825 C10.1249977,11.2750022 9.600003,11.5 9,11.5 C8.399997,11.5 7.87500225,11.2750022 7.425,10.825 C6.97499775,10.3749978 6.75,9.850003 6.75,9.25 C6.75,8.649997 6.97499775,8.12500225 7.425,7.675 C7.87500225,7.22499775 8.399997,7 9,7 Z" id="icon-dots" fill="#999999"></path>
    </g>
</svg>