<?xml version="1.0" encoding="UTF-8"?>
<svg width="18px" height="18px" viewBox="0 0 18 18" version="1.1" xmlns="http://www.w3.org/2000/svg" xmlns:xlink="http://www.w3.org/1999/xlink">
    <!-- Generator: Sketch 47.1 (45422) - http://www.bohemiancoding.com/sketch -->
    <title>envelope</title>
    <desc>Created with Sketch.</desc>
    <defs></defs>
    <g id="Page-1" stroke="none" stroke-width="1" fill="none" fill-rule="evenodd">
        <path d="M16.2723214,2 C16.7276808,2 17.1294625,2.1741054 17.4776786,2.52232143 C17.8258946,2.87053746 18,3.27231915 18,3.72767857 L18,14.4151786 C18,14.870538 17.8258946,15.2723197 17.4776786,15.6205357 C17.1294625,15.9687517 16.7276808,16.1428571 16.2723214,16.1428571 L1.72767857,16.1428571 C1.27231915,16.1428571 0.870537455,15.9687517 0.522321429,15.6205357 C0.174105402,15.2723197 0,14.870538 0,14.4151786 L0,3.72767857 C0,3.27231915 0.174105402,2.87053746 0.522321429,2.52232143 C0.870537455,2.1741054 1.27231915,2 1.72767857,2 L16.2723214,2 Z M16.0714286,5.65625 L16.0714286,3.92857143 L9,8.62946429 L1.92857143,3.92857143 L1.92857143,5.65625 L9,10.3571429 L16.0714286,5.65625 Z" id="icon-envelope" fill="#333333"></path>
    </g>
</svg>