<?xml version="1.0" encoding="UTF-8"?>
<svg width="18px" height="18px" viewBox="0 0 18 18" version="1.1" xmlns="http://www.w3.org/2000/svg" xmlns:xlink="http://www.w3.org/1999/xlink">
    <!-- Generator: Sketch 47.1 (45422) - http://www.bohemiancoding.com/sketch -->
    <title>heart</title>
    <desc>Created with Sketch.</desc>
    <defs></defs>
    <g id="Page-1" stroke="none" stroke-width="1" fill="none" fill-rule="evenodd">
        <path d="M9.00250045,17.6200008 L7.70406289,16.451407 C6.20363864,15.0664 5.12161816,14.0565142 4.45796898,13.4217194 C3.79431979,12.7869245 3.03690545,11.9790159 2.18570324,10.9979693 C1.33450102,10.0169226 0.757423428,9.14409278 0.454453148,8.3794535 C0.151482868,7.61481422 0,6.81411906 0,5.977344 C0,4.56348269 0.476089013,3.38047363 1.42828132,2.42828132 C2.38047363,1.47608901 3.54905575,1 4.93406275,1 C6.57875856,1 7.9348909,1.63478535 9.00250045,2.9043751 C10.07011,1.63478535 11.4262424,1 13.0709382,1 C14.4559452,1 15.6245273,1.47608901 16.5767196,2.42828132 C17.5289119,3.38047363 18.0050009,4.56348269 18.0050009,5.977344 C18.0050009,6.81411906 17.853518,7.61481422 17.5505478,8.3794535 C17.2475775,9.14409278 16.6704999,10.0169226 15.8192977,10.9979693 C14.9680955,11.9790159 14.2106811,12.7869245 13.5470319,13.4217194 C12.8833827,14.0565142 11.8013623,15.0664 10.300938,16.451407 L9.00250045,17.6200008 Z" id="icon-heart" fill="#B82C2C"></path>
    </g>
</svg>