<?xml version="1.0" encoding="UTF-8"?>
<svg width="18px" height="18px" viewBox="0 0 18 18" version="1.1" xmlns="http://www.w3.org/2000/svg" xmlns:xlink="http://www.w3.org/1999/xlink">
    <!-- Generator: Sketch 47.1 (45422) - http://www.bohemiancoding.com/sketch -->
    <title>moon</title>
    <desc>Created with Sketch.</desc>
    <defs></defs>
    <g id="Page-1" stroke="none" stroke-width="1" fill="none" fill-rule="evenodd">
        <path d="M16.2608696,13.6173913 C16.8347855,13.6173913 17.3826061,13.5391312 17.9043478,13.3826087 C17.5391286,13.9565246 17.2260883,14.4260851 16.9652174,14.7913043 C15.1912955,16.9304455 12.8956663,18 10.0782609,18 C7.57390052,18 5.43479148,17.1260957 3.66086957,15.3782609 C1.88694765,13.630426 1,11.5043603 1,9 C1,6.96520722 1.58695065,5.15218187 2.76086957,3.56086957 C3.93478848,1.96955726 5.46086017,0.886959391 7.33913043,0.313043478 C7.75652383,0.20869513 8.33043113,0.104348348 9.06086957,0 C8.64347617,0.626090087 8.35652252,1.09565061 8.2,1.40869565 C7.62608409,2.55652748 7.33913043,3.78260217 7.33913043,5.08695652 C7.33913043,7.43479435 8.1739047,9.44346991 9.84347826,11.1130435 C11.5130518,12.782617 13.5217274,13.6173913 15.8695652,13.6173913 L16.2608696,13.6173913 Z" id="icon-moon" fill="#4A4A4A"></path>
    </g>
</svg>