<?xml version="1.0" encoding="UTF-8"?>
<svg width="18px" height="18px" viewBox="0 0 18 18" version="1.1" xmlns="http://www.w3.org/2000/svg" xmlns:xlink="http://www.w3.org/1999/xlink">
    <!-- Generator: Sketch 47.1 (45422) - http://www.bohemiancoding.com/sketch -->
    <title>pinterest</title>
    <desc>Created with Sketch.</desc>
    <defs></defs>
    <g id="Page-1" stroke="none" stroke-width="1" fill="none" fill-rule="evenodd">
        <path d="M9,0 C11.4910839,0 13.6138305,0.877223371 15.3683036,2.63169643 C17.1227766,4.38616949 18,6.50891612 18,9 C18,11.4910839 17.1227766,13.6138305 15.3683036,15.3683036 C13.6138305,17.1227766 11.4910839,18 9,18 C8.08928116,18 7.23214688,17.8794655 6.42857143,17.6383929 C6.9107167,16.7812457 7.21874933,16.138395 7.35267857,15.7098214 L7.99553571,13.21875 C8.39732344,13.9687538 9.12053049,14.34375 10.1651786,14.34375 C11.6116144,14.34375 12.7834777,13.7678629 13.6808036,12.6160714 C14.5781295,11.46428 15.0267857,9.9910804 15.0267857,8.19642857 C15.0267857,6.80356446 14.4910768,5.59152301 13.4196429,4.56026786 C12.3482089,3.5290127 10.9821512,3.01339286 9.32142857,3.01339286 C7.3392758,3.01339286 5.77232719,3.59597632 4.62053571,4.76116071 C3.46874424,5.92634511 2.89285714,7.2187429 2.89285714,8.63839286 C2.89285714,10.4330447 3.50892241,11.5848189 4.74107143,12.09375 C4.98214406,12.2008934 5.14285674,12.1205371 5.22321429,11.8526786 C5.22321429,11.7991069 5.24330337,11.6785724 5.28348214,11.4910714 C5.32366092,11.3035705 5.35714272,11.183036 5.38392857,11.1294643 C5.43750027,10.9687492 5.3973221,10.8080365 5.26339286,10.6473214 C4.86160513,10.1651762 4.66071429,9.57589634 4.66071429,8.87946429 C4.66071429,7.70088696 5.06919234,6.68973636 5.88616071,5.84598214 C6.70312908,5.00222792 7.76785058,4.58035714 9.08035714,4.58035714 C10.2589345,4.58035714 11.1830324,4.89508614 11.8526786,5.52455357 C12.5223248,6.154021 12.8571429,6.97767348 12.8571429,7.99553571 C12.8571429,9.33482812 12.5892884,10.4665132 12.0535714,11.390625 C11.5178545,12.3147368 10.8348256,12.7767857 10.0044643,12.7767857 C9.52231902,12.7767857 9.13393004,12.6093767 8.83928571,12.2745536 C8.54464138,11.9397305 8.45089232,11.5312524 8.55803571,11.0491071 C8.61160741,10.7812487 8.71205283,10.4196451 8.859375,9.96428571 C9.00669717,9.50892629 9.12723167,9.1071446 9.22098214,8.75892857 C9.31473261,8.41071254 9.36160714,8.11607263 9.36160714,7.875 C9.36160714,7.49999812 9.25446536,7.17857277 9.04017857,6.91071429 C8.82589179,6.6428558 8.53125187,6.50892857 8.15625,6.50892857 C7.67410473,6.50892857 7.26562667,6.7299085 6.93080357,7.171875 C6.59598047,7.6138415 6.42857143,8.16963951 6.42857143,8.83928571 C6.42857143,9.08035835 6.45535687,9.32142737 6.50892857,9.5625 C6.56250027,9.80357263 6.61607116,9.99107076 6.66964286,10.125 L6.70982143,10.2857143 C6.04017522,13.0714425 5.65178625,14.7053547 5.54464286,15.1875 C5.38392777,15.8303604 5.33035688,16.5133892 5.38392857,17.2366071 C3.77677768,16.5133892 2.47768353,15.4151859 1.48660714,13.9419643 C0.495530759,12.4687426 0,10.8214377 0,9 C0,6.50891612 0.877223371,4.38616949 2.63169643,2.63169643 C4.38616949,0.877223371 6.50891612,0 9,0 Z" id="icon-pinterest" fill="#333333"></path>
    </g>
</svg>