<?xml version="1.0" encoding="UTF-8"?>
<svg width="18px" height="18px" viewBox="0 0 18 18" version="1.1" xmlns="http://www.w3.org/2000/svg" xmlns:xlink="http://www.w3.org/1999/xlink">
    <!-- Generator: Sketch 47.1 (45422) - http://www.bohemiancoding.com/sketch -->
    <title>search</title>
    <desc>Created with Sketch.</desc>
    <defs></defs>
    <g id="Page-1" stroke="none" stroke-width="1" fill="none" fill-rule="evenodd">
        <path d="M12.84375,11.296875 L18,16.453125 L16.453125,18 L11.34375,12.84375 L11.34375,12.046875 L11.015625,11.765625 C9.76561875,12.8281303 8.31250828,13.359375 6.65625,13.359375 C4.81249078,13.359375 3.24219398,12.710944 1.9453125,11.4140625 C0.648431016,10.117181 0,8.54688422 0,6.703125 C0,4.85936578 0.648431016,3.28125656 1.9453125,1.96875 C3.24219398,0.656243437 4.79686594,0 6.609375,0 C8.45313422,0 10.023431,0.656243437 11.3203125,1.96875 C12.617194,3.28125656 13.265625,4.85936578 13.265625,6.703125 C13.265625,8.35938328 12.7343803,9.81249375 11.671875,11.0625 L12,11.296875 L12.84375,11.296875 Z M6.65625,11.296875 C7.93750641,11.296875 9.03124547,10.851567 9.9375,9.9609375 C10.8437545,9.07030805 11.296875,7.98438141 11.296875,6.703125 C11.296875,5.42186859 10.8437545,4.32812953 9.9375,3.421875 C9.03124547,2.51562047 7.93750641,2.0625 6.65625,2.0625 C5.37499359,2.0625 4.28906695,2.51562047 3.3984375,3.421875 C2.50780805,4.32812953 2.0625,5.42186859 2.0625,6.703125 C2.0625,7.98438141 2.50780805,9.07030805 3.3984375,9.9609375 C4.28906695,10.851567 5.37499359,11.296875 6.65625,11.296875 Z" id="icon-search" fill="#999999"></path>
    </g>
</svg>