<?xml version="1.0" encoding="UTF-8"?>
<svg width="18px" height="18px" viewBox="0 0 18 18" version="1.1" xmlns="http://www.w3.org/2000/svg" xmlns:xlink="http://www.w3.org/1999/xlink">
    <!-- Generator: Sketch 47.1 (45422) - http://www.bohemiancoding.com/sketch -->
    <title>share</title>
    <desc>Created with Sketch.</desc>
    <defs></defs>
    <g id="Page-1" stroke="none" stroke-width="1" fill="none" fill-rule="evenodd">
        <path d="M14.5849057,12.7358491 C15.3207584,12.7358491 15.9433937,12.9905635 16.4528302,13.5 C16.9622667,14.0094365 17.2169811,14.6320718 17.2169811,15.3679245 C17.2169811,16.1037773 16.9622667,16.7264125 16.4528302,17.2358491 C15.9433937,17.7452856 15.3207584,18 14.5849057,18 C13.8490529,18 13.2264176,17.7452856 12.7169811,17.2358491 C12.2075446,16.7264125 11.9528302,16.1037773 11.9528302,15.3679245 C11.9528302,15.1981124 11.9811318,15.0000011 12.0377358,14.7735849 L5.58490566,11.0377358 C5.04716712,11.5188703 4.42453184,11.759434 3.71698113,11.759434 C2.9811284,11.759434 2.34434231,11.4905687 1.80660377,10.9528302 C1.26886524,10.4150917 1,9.77830557 1,9.04245283 C1,8.30660009 1.26178983,7.66981401 1.78537736,7.13207547 C2.30896488,6.59433693 2.93867557,6.3254717 3.6745283,6.3254717 C4.38207901,6.3254717 5.00471429,6.56603533 5.54245283,7.04716981 L11.9528302,3.35377358 C11.8962261,3.0707533 11.8679245,2.85849127 11.8679245,2.71698113 C11.8679245,1.9811284 12.1367898,1.34434231 12.6745283,0.806603774 C13.2122668,0.268865236 13.8490529,0 14.5849057,0 C15.3207584,0 15.9575445,0.268865236 16.495283,0.806603774 C17.0330216,1.34434231 17.3018868,1.9811284 17.3018868,2.71698113 C17.3018868,3.45283387 17.0330216,4.08961995 16.495283,4.62735849 C15.9575445,5.16509703 15.3207584,5.43396226 14.5849057,5.43396226 C13.877355,5.43396226 13.2547197,5.19339863 12.7169811,4.71226415 L6.30660377,8.40566038 C6.36320783,8.68868066 6.39150943,8.90094269 6.39150943,9.04245283 C6.39150943,9.18396297 6.36320783,9.396225 6.30660377,9.67924528 L12.8018868,13.4150943 C13.2547192,12.9622619 13.8490529,12.7358491 14.5849057,12.7358491 Z" id="icon-share" fill="#606060"></path>
    </g>
</svg>