<?xml version="1.0" encoding="UTF-8"?>
<svg width="18px" height="18px" viewBox="0 0 18 18" version="1.1" xmlns="http://www.w3.org/2000/svg" xmlns:xlink="http://www.w3.org/1999/xlink">
    <!-- Generator: Sketch 47.1 (45422) - http://www.bohemiancoding.com/sketch -->
    <title>clock</title>
    <desc>Created with Sketch.</desc>
    <defs></defs>
    <g id="Page-1" stroke="none" stroke-width="1" fill="none" fill-rule="evenodd">
        <path d="M9,0 C11.4788856,0 13.5985827,0.880272887 15.3591549,2.64084507 C17.1197271,4.40141725 18,6.52111437 18,9 C18,11.4788856 17.1197271,13.5985827 15.3591549,15.3591549 C13.5985827,17.1197271 11.4788856,18 9,18 C6.52111437,18 4.40141725,17.1197271 2.64084507,15.3591549 C0.880272887,13.5985827 0,11.4788856 0,9 C0,6.52111437 0.880272887,4.40141725 2.64084507,2.64084507 C4.40141725,0.880272887 6.52111437,0 9,0 Z M9,16.1830986 C11.00001,16.1830986 12.6971761,15.4788803 14.0915493,14.0704225 C15.4859225,12.6619648 16.1830986,10.9718408 16.1830986,9 C16.1830986,7.02815915 15.4859225,5.33803521 14.0915493,3.92957746 C12.6971761,2.52111972 11.00001,1.81690141 9,1.81690141 C6.99999,1.81690141 5.30282387,2.52111972 3.9084507,3.92957746 C2.51407754,5.33803521 1.81690141,7.02815915 1.81690141,9 C1.81690141,10.9718408 2.51407754,12.6619648 3.9084507,14.0704225 C5.30282387,15.4788803 6.99999,16.1830986 9,16.1830986 Z M9.46478873,4.52112676 L9.46478873,9.21126761 L13.5211268,11.6197183 L12.8450704,12.7183099 L8.11267606,9.88732394 L8.11267606,4.52112676 L9.46478873,4.52112676 Z" id="icon-clock" fill="#999999"></path>
    </g>
</svg>