<?xml version="1.0" encoding="UTF-8"?>
<svg width="18px" height="18px" viewBox="0 0 18 18" version="1.1" xmlns="http://www.w3.org/2000/svg" xmlns:xlink="http://www.w3.org/1999/xlink">
    <!-- Generator: Sketch 47.1 (45422) - http://www.bohemiancoding.com/sketch -->
    <title>user</title>
    <desc>Created with Sketch.</desc>
    <defs></defs>
    <g id="Page-1" stroke="none" stroke-width="1" fill="none" fill-rule="evenodd">
        <path d="M9,9 C7.74999375,9 6.68750437,8.56250437 5.8125,7.6875 C4.93749562,6.81249562 4.5,5.75000625 4.5,4.5 C4.5,3.24999375 4.93749562,2.18750438 5.8125,1.3125 C6.68750437,0.437495625 7.74999375,0 9,0 C10.2500063,0 11.3124956,0.437495625 12.1875,1.3125 C13.0625044,2.18750438 13.5,3.24999375 13.5,4.5 C13.5,5.75000625 13.0625044,6.81249562 12.1875,7.6875 C11.3124956,8.56250437 10.2500063,9 9,9 Z M9,11.25 C10.8750094,11.25 12.8437397,11.6640584 14.90625,12.4921875 C16.9687603,13.3203166 18,14.4062433 18,15.75 L18,18 L0,18 L0,15.75 C0,14.4062433 1.03123969,13.3203166 3.09375,12.4921875 C5.15626031,11.6640584 7.12499062,11.25 9,11.25 Z" id="icon-user" fill="#000000"></path>
    </g>
</svg>