<?xml version="1.0" encoding="UTF-8"?>
<svg width="18px" height="18px" viewBox="0 0 18 18" version="1.1" xmlns="http://www.w3.org/2000/svg" xmlns:xlink="http://www.w3.org/1999/xlink">
    <!-- Generator: Sketch 47.1 (45422) - http://www.bohemiancoding.com/sketch -->
    <title>youtube</title>
    <desc>Created with Sketch.</desc>
    <defs></defs>
    <g id="Page-1" stroke="none" stroke-width="1" fill="none" fill-rule="evenodd">
        <path d="M17.8945312,4.98828125 C17.9648441,6.25391258 18,7.50780629 18,8.75 C18,9.99219371 17.9648441,11.2460874 17.8945312,12.5117188 C17.8945312,13.3085977 17.6425806,13.9824191 17.1386719,14.5332031 C16.6347631,15.0839871 16.0195349,15.359375 15.2929688,15.359375 C13.4882722,15.4531255 11.390637,15.5 9,15.5 C6.60936305,15.5 4.51172777,15.4531255 2.70703125,15.359375 C1.98046512,15.359375 1.36523689,15.0839871 0.861328125,14.5332031 C0.357419355,13.9824191 0.10546875,13.3085977 0.10546875,12.5117188 C0.0351558984,11.2460874 0,9.99219371 0,8.75 C0,7.9296834 0.0468745313,6.67578969 0.140625,4.98828125 C0.140625,4.19140227 0.386716289,3.51758088 0.87890625,2.96679688 C1.37109621,2.41601287 1.98046512,2.140625 2.70703125,2.140625 C4.4179773,2.04687453 6.41014488,2 8.68359375,2 L9.31640625,2 C11.5898551,2 13.5820227,2.04687453 15.2929688,2.140625 C16.0195349,2.140625 16.6347631,2.41601287 17.1386719,2.96679688 C17.6425806,3.51758088 17.8945312,4.19140227 17.8945312,4.98828125 Z M7.27734375,12.1953125 L12.375,8.75 L7.27734375,5.26953125 L7.27734375,12.1953125 Z" id="icon-youtube" fill="#333333"></path>
    </g>
</svg>